<svg fill="none" height="42" viewBox="0 0 42 42" width="42" xmlns="http://www.w3.org/2000/svg" xmlns:xlink="http://www.w3.org/1999/xlink"><clipPath id="a"><path d="m0 0h42v42h-42z"/></clipPath><g clip-path="url(#a)"><path d="m32.025 9.9925c-.6825-.6825-1.785-.6825-2.4675 0l-8.5575 8.54-8.5575-8.5575c-.6825-.6825-1.785-.6825-2.46749 0-.6825.6825-.6825 1.785 0 2.4675l8.55749 8.5575-8.55749 8.5575c-.6825.6825-.6825 1.785 0 2.4675.68249.6825 1.78499.6825 2.46749 0l8.5575-8.5575 8.5575 8.5575c.6825.6825 1.785.6825 2.4675 0s.6825-1.785 0-2.4675l-8.5575-8.5575 8.5575-8.5575c.665-.665.665-1.785 0-2.45z" fill="#fff"/></g></svg>