<?xml version="1.0" encoding="UTF-8"?>
<svg width="45px" height="13px" viewBox="0 0 45 13" version="1.1" xmlns="http://www.w3.org/2000/svg" xmlns:xlink="http://www.w3.org/1999/xlink">
    <!-- Generator: Sketch 64 (93537) - https://sketch.com -->
    <title>LB-close-static</title>
    <desc>Created with Sketch.</desc>
    <g id="LB-close-static" stroke="none" stroke-width="1" fill="none" fill-rule="evenodd">
        <path d="M1.82,10.73 L2.68,10.16 C1.88,8.91 1.43,7.42 1.43,5.95 C1.43,4.49 1.87,3.03 2.67,1.82 L1.81,1.25 C0.88,2.63 0.4,4.29 0.4,5.95 C0.4,7.64 0.88,9.31 1.82,10.73 Z M9.35,9.12 C11.1,9.12 12.3,7.98 12.59,6.36 L11.44,6.36 C11.37,6.72 11.23,7.04 11.04,7.29 C10.6,7.8 10,8.07 9.3,8.07 C7.78,8.07 6.95,6.79 6.95,5.42 C6.95,3.96 7.88,2.88 9.28,2.88 C10.33,2.88 11.17,3.48 11.36,4.46 L12.51,4.46 C12.2,2.81 11.02,1.83 9.36,1.83 C7.26,1.83 5.84,3.39 5.84,5.45 C5.84,7.49 7.24,9.12 9.35,9.12 Z M18.49,9 L18.49,7.92 L14.77,7.92 L14.77,2.01 L13.65,2.01 L13.65,9 L18.49,9 Z M22.82,9.15 C24.8,9.15 26.28,7.53 26.28,5.58 L26.28,5.46 C26.28,3.49 24.79,1.86 22.82,1.86 L22.69,1.86 C20.67,1.86 19.19,3.49 19.19,5.46 L19.19,5.58 C19.19,7.53 20.67,9.15 22.69,9.15 L22.82,9.15 Z M22.74,8.07 C21.34,8.07 20.31,6.99 20.31,5.52 C20.31,4.06 21.35,2.94 22.74,2.94 C24.13,2.94 25.16,4.06 25.16,5.53 C25.16,6.99 24.15,8.07 22.74,8.07 Z M30.12,9.17 C31.67,9.17 32.76,8.26 32.76,6.89 C32.76,5.64 31.85,4.97 30.14,4.79 C29,4.67 28.58,4.37 28.58,3.87 C28.58,3.29 29.14,2.93 29.89,2.93 C30.7,2.93 31.2,3.36 31.39,4.19 L32.46,3.78 C32.18,2.55 31.18,1.87 29.91,1.87 C28.53,1.87 27.48,2.68 27.48,3.93 C27.48,5.01 28.28,5.71 29.94,5.89 C31.1,6.01 31.65,6.37 31.65,6.96 C31.65,7.65 31.04,8.11 30.08,8.11 C29.02,8.11 28.31,7.55 28.1,6.42 L27.06,6.78 C27.31,8.28 28.58,9.17 30.12,9.17 Z M38.58,9 L38.58,7.92 L34.81,7.92 L34.81,5.97 L38.18,5.97 L38.18,4.88 L34.81,4.88 L34.81,3.08 L38.58,3.08 L38.58,2.01 L33.69,2.01 L33.69,9 L38.58,9 Z M42.51,10.73 C43.45,9.35 43.92,7.69 43.92,6.03 C43.92,4.34 43.45,2.67 42.5,1.25 L41.64,1.82 C42.44,3.06 42.89,4.56 42.89,6.03 C42.89,7.48 42.45,8.95 41.65,10.16 L42.51,10.73 Z" id="(CLOSE)" fill="#F2F3F5" fill-rule="nonzero"></path>
    </g>
</svg>