<?xml version="1.0" encoding="UTF-8"?>
<svg width="37px" height="12px" viewBox="0 0 37 12" version="1.1" xmlns="http://www.w3.org/2000/svg" xmlns:xlink="http://www.w3.org/1999/xlink">
    <!-- Generator: Sketch 64 (93537) - https://sketch.com -->
    <title>LB-prev-static</title>
    <desc>Created with Sketch.</desc>
    <g id="LB-prev-static" stroke="none" stroke-width="1" fill="none" fill-rule="evenodd">
        <path d="M1.82,10.73 L2.68,10.16 C1.88,8.91 1.43,7.42 1.43,5.95 C1.43,4.49 1.87,3.03 2.67,1.82 L1.81,1.25 C0.88,2.63 0.4,4.29 0.4,5.95 C0.4,7.64 0.88,9.31 1.82,10.73 Z M7.07,9 L7.07,6.19 L8.97,6.19 C10.33,6.19 11.15,5.35 11.15,4.12 C11.15,2.89 10.33,2.01 8.97,2.01 L5.95,2.01 L5.95,9 L7.07,9 Z M8.93,5.1 L7.07,5.1 L7.07,3.08 L8.93,3.08 C9.64,3.08 10.03,3.46 10.03,4.09 C10.03,4.73 9.64,5.1 8.93,5.1 Z M17.25,9.01 L17.25,6.49 C17.25,6.11 17,5.74 16.34,5.61 C16.85,5.42 17.41,4.72 17.41,3.97 C17.41,2.84 16.49,2.02 15.23,2.02 L12.15,2.02 L12.15,9 L13.26,9 L13.26,6.19 L15.17,6.19 C15.62,6.19 16.14,6.27 16.14,6.89 L16.14,9.01 L17.25,9.01 Z M15.18,5.1 L13.26,5.1 L13.26,3.09 L15.18,3.09 C15.82,3.09 16.28,3.43 16.28,4.1 C16.28,4.78 15.82,5.1 15.18,5.1 Z M23.44,9 L23.44,7.92 L19.67,7.92 L19.67,5.97 L23.04,5.97 L23.04,4.88 L19.67,4.88 L19.67,3.08 L23.44,3.08 L23.44,2.01 L18.55,2.01 L18.55,9 L23.44,9 Z M28,9 L30.7,2.01 L29.47,2.01 L27.37,7.53 L25.26,2.01 L24.03,2.01 L26.72,9 L28,9 Z M34.3,10.73 C35.24,9.35 35.71,7.69 35.71,6.03 C35.71,4.34 35.24,2.67 34.29,1.25 L33.43,1.82 C34.23,3.06 34.68,4.56 34.68,6.03 C34.68,7.48 34.24,8.95 33.44,10.16 L34.3,10.73 Z" id="(PREV)" fill="#F2F3F5" fill-rule="nonzero"></path>
    </g>
</svg>