<?xml version="1.0" encoding="UTF-8"?>
<svg width="37px" height="12px" viewBox="0 0 37 12" version="1.1" xmlns="http://www.w3.org/2000/svg" xmlns:xlink="http://www.w3.org/1999/xlink">
    <!-- Generator: Sketch 64 (93537) - https://sketch.com -->
    <title>LB-Next-static</title>
    <desc>Created with Sketch.</desc>
    <g id="LB-Next-static" stroke="none" stroke-width="1" fill="none" fill-rule="evenodd">
        <path d="M1.82,10.73 L2.68,10.16 C1.88,8.91 1.43,7.42 1.43,5.95 C1.43,4.49 1.87,3.03 2.67,1.82 L1.81,1.25 C0.88,2.63 0.4,4.29 0.4,5.95 C0.4,7.64 0.88,9.31 1.82,10.73 Z M7.08,9 L7.08,3.59 L10.73,9 L11.99,9 L11.99,2.01 L10.87,2.01 L10.87,7.33 L7.28,2.01 L5.95,2.01 L5.95,9 L7.08,9 Z M18.21,9 L18.21,7.92 L14.44,7.92 L14.44,5.97 L17.81,5.97 L17.81,4.88 L14.44,4.88 L14.44,3.08 L18.21,3.08 L18.21,2.01 L13.32,2.01 L13.32,9 L18.21,9 Z M20.23,9 L22.1,6.44 L23.96,9 L25.39,9 L22.82,5.5 L25.39,2.01 L23.98,2.01 L22.1,4.58 L20.23,2.01 L18.8,2.01 L21.37,5.5 L18.83,9 L20.23,9 Z M29.07,9 L29.07,3.08 L31.31,3.08 L31.31,2.01 L25.72,2.01 L25.72,3.08 L27.95,3.08 L27.95,9 L29.07,9 Z M34.98,10.73 C35.92,9.35 36.39,7.69 36.39,6.03 C36.39,4.34 35.92,2.67 34.97,1.25 L34.11,1.82 C34.91,3.06 35.36,4.56 35.36,6.03 C35.36,7.48 34.92,8.95 34.12,10.16 L34.98,10.73 Z" id="(NEXT)" fill="#F2F3F5" fill-rule="nonzero"></path>
    </g>
</svg>