<svg width="1519" height="247" viewBox="0 0 1519 247" fill="none" xmlns="http://www.w3.org/2000/svg">
<path d="M63.2251 1.34324L62.2617 0.379883L0.414062 62.2276L0.606734 62.4202V123.69H0.414062V185.345H0.606734V247H62.2617V185.345H308.689V154.517H432.192V247H493.847V0.379883H63.2251V1.34324ZM87.8871 62.0349H432.192V92.8624H247.034V123.69H62.2617V87.6602L87.8871 62.0349Z" fill="white"/>
<path d="M512.644 62.0349H713.023V92.8624H944.229V108.276H512.644V247H1005.88V185.345H574.299V169.931H1005.88V31.2074H774.678V0.379883H512.644V62.0349Z" fill="white"/>
<path d="M1024.87 0.379883V62.0349H1425.63L1410.22 77.4486H1240.67V108.276H1101.94L1024.87 185.345V247H1518.11V185.345H1117.36L1132.77 169.931H1302.32V139.104H1441.04L1518.11 62.0349V0.379883H1024.87Z" fill="white"/>
</svg>
