<svg width="716" height="282" viewBox="0 0 716 282" fill="none" xmlns="http://www.w3.org/2000/svg">
<path d="M0.129883 282H41.1675L72.7348 204.265H197.82L228.993 282H270.425L157.178 5.78552H113.378L0.129883 282ZM135.08 49.1906L183.221 168.357H86.9401L135.08 49.1906Z" fill="white"/>
<path d="M285.395 282H477.167V246.092H328.8C344.979 182.168 476.772 187.298 476.772 88.2553C476.772 32.6178 435.34 0.26123 380.492 0.26123C323.276 0.26123 283.422 34.9853 283.422 95.3579L324.46 98.5146C324.46 60.2392 342.611 35.7745 381.281 35.7745C415.611 35.7745 438.892 54.7149 438.892 86.2823C438.892 167.174 285.395 150.601 285.395 259.903V282Z" fill="white"/>
<path d="M498.46 41.6934H666.161L498.46 246.092V282H715.091V246.092H546.6L715.091 41.6934V5.78552H498.46V41.6934Z" fill="white"/>
</svg>
