<svg width="13" height="11" viewBox="0 0 13 11" fill="none" xmlns="http://www.w3.org/2000/svg">
<path d="M0.5 9H1.72L2.5 7.09H5.45L6.21 9H7.45L4.58 2.01H3.37L0.5 9ZM3.97 3.43L5.01 6.01H2.93L3.97 3.43Z" fill="black"/>
<path d="M8.57 5.71C8.65 5.12 8.95 5.02 9.38 5.02C10.1 5.02 10.31 5.28 10.34 5.86C9.29 6.08 7.47 6.21 7.47 7.65C7.47 8.5 8.12 9.1 9.03 9.1C9.56 9.1 10.19 8.9 10.37 8.33C10.37 8.98 10.83 9 10.9 9H11.83L11.73 8.06H11.67C11.66 8.06 11.41 8.05 11.41 7.66V5.8C11.41 4.61 10.58 4.04 9.5 4.04C8.48 4.04 7.75 4.56 7.61 5.58L8.57 5.71ZM10.36 6.8V6.95C10.36 7.59 9.97 8.09 9.27 8.09C8.97 8.09 8.53 8 8.53 7.59C8.53 7.2 8.94 6.99 9.99 6.85L10.36 6.8Z" fill="black"/>
</svg>
