<svg width="12" height="12" viewBox="0 0 12 12" fill="none" xmlns="http://www.w3.org/2000/svg">
<path fill-rule="evenodd" clip-rule="evenodd" d="M6 4.35969L1 4.35969L1 3.35969L6 3.35969L6 1.35969L7 1.35969L7 6.31937L8.68765 4.96925L9.31235 5.75012L7 7.6L7 10.3194L8.68765 8.96925L9.31235 9.75012L6.81235 11.7501L6.5 12L6.18765 11.7501L3.68765 9.75012L4.31235 8.96925L6 10.3194L6 7.6L3.68765 5.75012L4.31235 4.96925L6 6.31938L6 4.35969ZM6 1.35969L11 1.35969L11 0.359685L6 0.359686L6 1.35969Z" fill="black"/>
</svg>
