<svg width="11" height="11" viewBox="0 0 11 11" fill="none" xmlns="http://www.w3.org/2000/svg">
<g clip-path="url(#clip0_454_26)">
<path d="M2.28 6.78C2.53 8.28 3.8 9.17 5.34 9.17C6.89 9.17 7.98 8.26 7.98 6.89C7.98 5.64 7.07 4.97 5.36 4.79C4.22 4.67 3.8 4.37 3.8 3.87C3.8 3.29 4.36 2.93 5.11 2.93C5.92 2.93 6.42 3.36 6.61 4.19L7.68 3.78C7.4 2.55 6.4 1.87 5.13 1.87C3.75 1.87 2.7 2.68 2.7 3.93C2.7 5.01 3.5 5.71 5.16 5.89C6.32 6.01 6.87 6.37 6.87 7C6.87 7.65 6.26 8.11 5.3 8.11C4.24 8.11 3.53 7.55 3.32 6.42L2.28 6.78Z" fill="black"/>
<rect x="4.75" y="1" width="1" height="9" fill="black"/>
<rect x="1.25" y="9" width="1" height="4" transform="rotate(45 1.25 9)" fill="black"/>
<rect x="11.25" y="-1" width="1" height="3" transform="rotate(45 11.25 -1)" fill="black"/>
<rect x="1.82843" y="1.12132" width="1" height="3" transform="rotate(135 1.82843 1.12132)" fill="black"/>
<rect x="11.75" y="11" width="1" height="3" transform="rotate(135 11.75 11)" fill="black"/>
</g>
<defs>
<clipPath id="clip0_454_26">
<rect width="11" height="11" fill="white"/>
</clipPath>
</defs>
</svg>
