<svg width="11" height="11" viewBox="0 0 11 11" fill="none" xmlns="http://www.w3.org/2000/svg">
<g clip-path="url(#clip0_453_58)">
<path fill-rule="evenodd" clip-rule="evenodd" d="M1 9L10 9L10 2L1 2L1 9ZM10 10L11 10L11 9L11 2L11 0.999999L10 0.999999L1 1L-3.93403e-07 1L-2.96266e-07 2L3.83689e-07 9L4.80825e-07 10L1 10L10 10Z" fill="black"/>
<rect x="2" y="3" width="1" height="5" fill="black"/>
<rect x="6" y="5" width="1" height="3" transform="rotate(90 6 5)" fill="black"/>
<rect x="5" y="3" width="1" height="5" fill="black"/>
<rect x="7" y="5" width="1" height="3" fill="black"/>
<rect x="7" y="3" width="1" height="1" fill="black"/>
</g>
<defs>
<clipPath id="clip0_453_58">
<rect width="11" height="11" fill="white"/>
</clipPath>
</defs>
</svg>
