<svg width="11" height="11" viewBox="0 0 11 11" fill="none" xmlns="http://www.w3.org/2000/svg">
<g clip-path="url(#clip0_453_29)">
<path fill-rule="evenodd" clip-rule="evenodd" d="M3 7L-5.56362e-08 7L-3.0598e-07 4L3 4L3 5L5 5L5 2L5 0.999999L6 0.999999L8 0.999999L8 -8.86133e-07L11 -1.01727e-06L11 3L8 3L8 2L6 2L6 5L6 6L6 9L8 9L8 8L11 8L11 11L8 11L8 10L6 10L5 10L5 9L5 6L3 6L3 7Z" fill="black"/>
</g>
<defs>
<clipPath id="clip0_453_29">
<rect width="11" height="11" fill="white"/>
</clipPath>
</defs>
</svg>
