<svg width="12" height="14" viewBox="0 0 12 14" fill="none" xmlns="http://www.w3.org/2000/svg">
<g clip-path="url(#clip0_453_127)">
<path d="M11.5 10V4L6 1L0.5 4V10L6 13L11.5 10Z" stroke="black"/>
<path d="M11.5 4L6 7M6 7V13M6 7L0.5 4" stroke="black"/>
<path d="M3 5.5L2.76057 5.06105L2.5 5.20318V5.5H3ZM8.73943 2.93895C8.98185 2.80672 9.07118 2.503 8.93895 2.26057C8.80672 2.01815 8.503 1.92882 8.26057 2.06105L8.73943 2.93895ZM3.5 11.5V5.5H2.5V11.5H3.5ZM3.23943 5.93895L8.73943 2.93895L8.26057 2.06105L2.76057 5.06105L3.23943 5.93895Z" fill="black"/>
</g>
<defs>
<clipPath id="clip0_453_127">
<rect width="12" height="14" fill="white"/>
</clipPath>
</defs>
</svg>
