<svg width="8" height="11" viewBox="0 0 8 11" fill="none" xmlns="http://www.w3.org/2000/svg">
<g clip-path="url(#clip0_458_172)">
<path d="M2.72572 6.07714C2.86286 6.88286 3.36572 7.43143 4.10857 7.55714V7.98H4.74857V7.56857C5.52 7.47143 5.98857 6.99143 5.98857 6.3C5.98857 5.64857 5.56572 5.26571 4.74857 5.11143V4.12286C5 4.24286 5.18857 4.5 5.26857 4.87143L5.88572 4.64286C5.74857 4.03143 5.30857 3.59714 4.74857 3.46571V3.03714H4.10857V3.44286C3.53143 3.51714 2.97714 3.87714 2.97714 4.57429C2.97714 5.15143 3.35429 5.54 4.10857 5.67714V6.91714C3.71429 6.79143 3.43429 6.42 3.33714 5.87143L2.72572 6.07714ZM4.74857 5.78C5.13714 5.87714 5.34286 6.06 5.34286 6.34C5.34286 6.62571 5.12 6.85429 4.74857 6.94V5.78ZM3.62286 4.55143C3.62286 4.3 3.81143 4.13429 4.10857 4.07714V5.02C3.76572 4.92857 3.62286 4.77429 3.62286 4.55143Z" fill="black"/>
<rect x="7" width="1" height="11" fill="black"/>
<path fill-rule="evenodd" clip-rule="evenodd" d="M8 5.5C8 7.433 6.433 9 4.5 9C2.567 9 1 7.433 1 5.5C1 3.567 2.567 2 4.5 2C6.433 2 8 3.567 8 5.5ZM8 2.67133C7.17502 1.65183 5.91363 1 4.5 1C2.01472 1 0 3.01472 0 5.5C0 7.98528 2.01472 10 4.5 10C5.91363 10 7.17502 9.34817 8 8.32867V5.5V2.67133Z" fill="black"/>
</g>
<defs>
<clipPath id="clip0_458_172">
<rect width="8" height="11" fill="white"/>
</clipPath>
</defs>
</svg>
