<svg width="290" height="92" viewBox="0 0 290 92" fill="none" xmlns="http://www.w3.org/2000/svg">
<path fill-rule="evenodd" clip-rule="evenodd" d="M267.835 26.6821L278.523 0H290L252.003 91.8735H238.808L200.809 0H212.023L222.842 26.6821H267.835ZM226.802 36.2758L245.274 81.8847L263.744 36.2758H226.802Z" fill="#191919"/>
<path fill-rule="evenodd" clip-rule="evenodd" d="M32.8523 0.127954H0V92H33.1167C56.6015 92 76.2606 71.497 76.2606 46.918V45.3417C76.2606 20.7627 56.4693 0.127954 32.8523 0.127954ZM32.0604 82.0112H10.1594V10.1168H32.0604C51.4565 10.1168 65.7046 25.3627 65.7046 46.1291C65.7046 66.897 51.5872 82.0112 32.0604 82.0112Z" fill="#191919"/>
<path fill-rule="evenodd" clip-rule="evenodd" d="M189.451 0.159445V9.7511H162.896L194.774 92H80.8223V0.159445H90.9738V82.4083H114.921L143.186 9.7511H116.81V0.159445H189.451ZM132.701 65.4648L152.963 11.9584L169.201 53.923L179.973 82.4333H126.275L126.284 82.4083H126.218L132.701 65.4648Z" fill="#191919"/>
</svg>
