<svg width="11" height="13" viewBox="0 0 11 13" fill="none" xmlns="http://www.w3.org/2000/svg">
<path fill-rule="evenodd" clip-rule="evenodd" d="M6.89669 3.15349C6.745 3.08867 6.58688 3.03379 6.4229 2.98985C4.55577 2.48955 2.63659 3.59759 2.1363 5.46472C1.99736 5.98323 1.98246 6.50575 2.07341 7.00079L3.19678 7.3018C3.00177 6.81697 2.95656 6.26717 3.10222 5.72354C3.45958 4.38988 4.83042 3.59842 6.16408 3.95577C6.32948 4.00009 6.48654 4.06 6.6341 4.13349L6.89669 3.15349ZM7.83729 5.43939L8.96067 5.74039C9.05161 6.23543 9.03671 6.75795 8.89778 7.27646C8.39748 9.14359 6.4783 10.2516 4.61117 9.75133C4.44719 9.70739 4.28908 9.65251 4.13739 9.58769L4.39997 8.60769C4.54753 8.68118 4.70459 8.74109 4.86999 8.7854C6.20365 9.14276 7.5745 8.3513 7.93185 7.01764C8.07751 6.47401 8.0323 5.92421 7.83729 5.43939Z" fill="black"/>
<path d="M4.81053 5.8434L6.81053 3.3434L4.81053 0.843399" stroke="black"/>
<path d="M6.22354 6.89778L4.22354 9.39778L6.22354 11.8978" stroke="black"/>
</svg>
