<svg width="78" height="630" viewBox="0 0 78 630" fill="none" xmlns="http://www.w3.org/2000/svg">
<path d="M76 2C75.6049 4.76574 74.1503 7.15296 73 9.66667C68.9736 18.465 64.8602 27.1344 60.3889 35.7222C45.9438 63.466 31.7269 90.0285 22.1111 119.944C14.7105 142.968 11.4045 164.433 12.2222 188.556C13.043 212.77 13.0395 237.026 14.4444 261.222C15.8562 285.537 19.0569 309.83 19.8889 334.167C20.6479 356.367 20.3208 378.792 19.9444 401C19.4017 433.019 7.81314 463.531 9.05554 495.833C9.81582 515.601 17.755 533.701 24.4444 551.944C26.5212 557.608 29.678 563.882 30 570C30.2315 574.399 30.9053 579.621 32 584M35 10C37.7011 11.6507 39.5085 14.3423 41.6666 16.6111C47.1274 22.3519 53.1873 27.454 58.8889 32.9444C62.7285 36.6419 75.1096 45.2674 75.9444 51.1111C76.8052 57.1365 73.5217 65.9364 71.9444 71.5556C68.7872 82.8031 64.3397 93.5298 61.5 104.889C58.1062 118.464 45.2331 128.322 45 142.778C44.879 150.278 44.6353 156.863 43 164.222C41.1949 172.345 38.1526 180.608 38 189C37.7612 202.131 39.8563 215.334 38.9444 228.556C38.0452 241.595 35.9087 253.609 36.9444 266.556C38.0089 279.861 36.0374 292.486 34.2222 305.556C33.4791 310.906 32.7608 316.247 31.7778 321.556C30.7185 327.276 26.6949 331.551 25.2222 337C23.684 342.691 23.2296 348.654 22.9444 354.5C22.4846 363.926 18.9482 373.155 16 382C12.0895 393.731 5.394 403.989 3.55553 416.333C2.75514 421.707 1.99998 427.51 1.99998 432.944C1.99998 447.199 0.48892 461.073 8.2222 473.778C13.1128 481.812 15.4078 489.179 17 498.556C18.6829 508.466 21.5459 518.245 22.7778 528.222C24.357 541.014 27 553.412 27 566.389C27 575.468 26.0424 583.882 27.0555 593C28.0518 601.967 26.0711 624.024 38 628" stroke="black" stroke-width="3" stroke-linecap="round"/>
</svg>
