<svg width="11" height="11" viewBox="0 0 11 11" fill="none" xmlns="http://www.w3.org/2000/svg">
<g clip-path="url(#clip0_666_675)">
<path fill-rule="evenodd" clip-rule="evenodd" d="M0 11L3 11L3 8L-1.31134e-07 8L0 11ZM3 7L-1.74846e-07 7L-3.0598e-07 4L3 4L3 7ZM3 3L-3.49691e-07 3L-4.80825e-07 -2.5034e-06L3 -2.63453e-06L3 3ZM11 3L8 3L8 -2.85309e-06L11 -2.98422e-06L11 3ZM8 7L11 7L11 4L8 4L8 7ZM11 11L8 11L8 8L11 8L11 11ZM4 3L7 3L7 -2.80937e-06L4 -2.67824e-06L4 3ZM7 7L4 7L4 4L7 4L7 7ZM4 11L7 11L7 8L4 8L4 11Z" fill="black"/>
</g>
<defs>
<clipPath id="clip0_666_675">
<rect width="11" height="11" fill="white"/>
</clipPath>
</defs>
</svg>
