<svg width="11" height="10" viewBox="0 0 11 10" fill="none" xmlns="http://www.w3.org/2000/svg">
<path d="M5.35899 1.43477C3.29196 1.43477 1.53552 3.23405 1.53552 5.26895V5.41889C1.53552 7.48592 3.32409 9.24236 5.35899 9.24236H5.43396C6.24792 9.24236 7.05117 8.9639 7.56525 8.59976L7.0833 7.85006C6.66561 8.13923 6.06585 8.36414 5.43396 8.36414H5.38041C3.84888 8.36414 2.44587 6.93971 2.44587 5.39747V5.26895C2.44587 3.73742 3.8703 2.3237 5.38041 2.3237H5.43396C7.22253 2.3237 8.40063 3.46967 8.40063 5.09759C8.40063 5.94368 8.07933 6.44705 7.55454 6.44705C7.30821 6.44705 7.15827 6.32924 7.12614 6.14717L7.35105 3.5018H6.49425L6.46212 3.73742C6.2265 3.52322 5.89449 3.40541 5.48751 3.40541C4.26657 3.40541 3.55971 4.45499 3.55971 5.5367C3.55971 6.52202 4.13805 7.33598 5.17692 7.33598C5.66958 7.33598 6.07656 7.15391 6.4407 6.8219C6.6549 7.1432 7.02975 7.33598 7.55454 7.33598C8.62554 7.33598 9.31098 6.52202 9.31098 5.29037V5.23682C9.31098 2.97701 7.7259 1.43477 5.49822 1.43477H5.35899ZM5.31615 6.45776C4.78065 6.45776 4.47006 6.01865 4.47006 5.47244C4.47006 4.88339 4.84491 4.27292 5.48751 4.27292C6.02301 4.27292 6.31218 4.71203 6.31218 5.24753C6.31218 5.83658 5.95875 6.45776 5.31615 6.45776Z" fill="black"/>
</svg>
