<svg width="11" height="11" viewBox="0 0 11 11" fill="none" xmlns="http://www.w3.org/2000/svg">
<g clip-path="url(#clip0_794_683)">
<path fill-rule="evenodd" clip-rule="evenodd" d="M0 11L3 11L3 10L5 10L6 10L6 9L8 9L8 10L11 10L11 7L8 7L8 8L6 8L6 7L7 7L7 4L6 4L6 3L6 2L8 2L8 3L11 3L11 -4.80825e-07L8 6.03983e-07L8 1L6 1L5 1L5 2L3 2L3 1L-4.37114e-07 1L-3.0598e-07 4L3 4L3 3L5 3L5 4L4 4L4 7L5 7L5 8L5 9L3 9L3 8L-1.31134e-07 8L0 11Z" fill="black"/>
</g>
<defs>
<clipPath id="clip0_794_683">
<rect width="11" height="11" fill="white"/>
</clipPath>
</defs>
</svg>
