<svg width="90" height="44" viewBox="0 0 90 44" fill="none" xmlns="http://www.w3.org/2000/svg">
<path fill-rule="evenodd" clip-rule="evenodd" d="M0 0H16.993V3.61882H24.2307V0H32.7272V3.61888H28.7936V7.2377H33.1992V7.23774H49.2481V3.61886L46.2588 3.61888V0H54.2588V3.61882H62V0H73V3.61888H62.6538V7.2377H62.2205L62.2205 7.23774H57.1153V10.8566H64.6678V13.9671L64.8526 14.4755H51.4509V10.8566H44.9999V14.4755H41.2237V18.0944H62.7796V21.7133H57.1153V25.3321L65.9265 25.3321H79.1433V28.951L70.117 28.951H66.2411V32.5699L73.3216 32.5699V36.1888L72.7492 36.1888H64.0383V39.8077L75.6817 39.8076V43.4265H38.7062V39.8076H59.6327V36.1888H54.5978V32.5699H62.1503V28.951H50.3496V32.5699V36.1888H37.6366L37.6366 36.1888H36.3461H30.8391H24.2307V32.5699H30.8391H36.3461H41.2237H44.0559H45.6293V32.5699H46.2586V28.951H34.9633L34.9632 28.951H33.3566V25.3321H41.381V21.7133H34.93V18.0944H30.9533L30.9533 18.0943H14.4755V14.4755H31.4685V14.4755H40.2796V10.8566H28.28L28.28 10.8566H19.9824V7.2377H10.3845V3.61888H0V0ZM47.5174 25.1748V21.5559H51.1362V25.1748H47.5174ZM72.5349 18.0943H89.5279V21.7132H72.5349V18.0943ZM25.4894 25.3321H8.49643V28.951H25.4894V25.3321Z" fill="black"/>
</svg>
