<svg id="Ebene_1" data-name="Ebene 1" xmlns="http://www.w3.org/2000/svg" xmlns:xlink="http://www.w3.org/1999/xlink" viewBox="0 0 56.69 94.21"><defs><style>.cls-1{fill:url(#Unbenannter_Verlauf_127);}.cls-2{fill:#fff;}</style><linearGradient id="Unbenannter_Verlauf_127" x1="28.35" x2="28.35" y2="94.21" gradientUnits="userSpaceOnUse"><stop offset="0" stop-color="#141629"/><stop offset="0.15" stop-color="#23325b"/><stop offset="0.3" stop-color="#23609f"/><stop offset="0.45" stop-color="#2899bd"/><stop offset="0.55" stop-color="#33b7d0"/><stop offset="0.65" stop-color="#96cccb"/><stop offset="0.8" stop-color="#d3bc94"/><stop offset="0.95" stop-color="#ea5b0c"/></linearGradient></defs><rect class="cls-1" width="56.69" height="94.21" rx="28.35"/><polygon class="cls-2" points="37.23 41.67 37.23 41.67 33.97 36.66 37.23 41.67"/><polygon class="cls-2" points="19.46 41.67 22.72 36.66 19.46 41.67 19.46 41.67"/><path class="cls-2" d="M28.34,13.65A17.08,17.08,0,0,0,17.82,44.19l1.64-2.52,3.26-5a8.17,8.17,0,1,1,11.25,0l3.26,5,1.64,2.52A17.08,17.08,0,0,0,28.34,13.65Z"/><path class="cls-2" d="M36.36,45.84h0c-.39.21-.78.39-1.18.57C35.58,46.22,36,46,36.36,45.84Z"/><path class="cls-2" d="M26.72,47.75c.54,0,1.08.09,1.63.09s1.09,0,1.63-.09c-.54,0-1.09.08-1.64.08S27.25,47.8,26.72,47.75Z"/><path class="cls-2" d="M20.33,45.84c.37.19.75.37,1.13.54-.38-.17-.76-.35-1.13-.55Z"/><path class="cls-2" d="M31.15,35.08a5.16,5.16,0,1,0-5.61,0l1.25.81-6.46,9.94c.37.2.75.38,1.13.55l.47.2c.41.16.82.32,1.25.45l.29.09c.41.12.82.23,1.23.32l.3.06c.49.1,1,.17,1.5.23l.22,0c.53,0,1.07.08,1.62.08s1.1,0,1.64-.08l.19,0c.52,0,1-.13,1.54-.23l.22,0c.45-.1.9-.21,1.34-.35l.21-.06c.45-.14.88-.3,1.32-.48l.38-.16c.4-.18.79-.36,1.18-.57L29.9,35.89Z"/><path class="cls-2" d="M17.33,63.11h.59A1,1,0,0,0,19,63.9c.67,0,1.08-.33,1.08-.8s-.26-.63-.74-.75l-.67-.16c-.66-.16-1.19-.5-1.19-1.28a1.39,1.39,0,0,1,1.54-1.31,1.38,1.38,0,0,1,1.53,1.27H20a.84.84,0,0,0-.9-.7c-.54,0-.91.31-.91.75s.38.63.72.71l.69.17c.91.22,1.19.77,1.19,1.31,0,.83-.75,1.36-1.72,1.36A1.59,1.59,0,0,1,17.33,63.11Z"/><path class="cls-2" d="M28.77,59.7,27,64.37h-.56L25,60.55l-1.39,3.82h-.56L21.28,59.7H22l1.37,3.71L24.7,59.7h.66l1.37,3.7,1.36-3.7Z"/><path class="cls-2" d="M29.61,58a.5.5,0,1,1,.49.45A.47.47,0,0,1,29.61,58Zm.17,1.72h.64v4.67h-.64Z"/><path class="cls-2" d="M31.64,63.11h.59a1,1,0,0,0,1.11.79c.67,0,1.08-.33,1.08-.8s-.26-.63-.74-.75L33,62.19c-.66-.16-1.19-.5-1.19-1.28a1.56,1.56,0,0,1,3.07,0h-.62a.84.84,0,0,0-.9-.7c-.54,0-.91.31-.91.75s.38.63.72.71l.69.17c.91.22,1.19.77,1.19,1.31,0,.83-.75,1.36-1.72,1.36A1.59,1.59,0,0,1,31.64,63.11Z"/><path class="cls-2" d="M35.93,63.11h.59a1,1,0,0,0,1.11.79c.67,0,1.08-.33,1.08-.8s-.26-.63-.74-.75l-.67-.16c-.66-.16-1.19-.5-1.19-1.28a1.56,1.56,0,0,1,3.07,0h-.62a.84.84,0,0,0-.9-.7c-.54,0-.91.31-.91.75s.38.63.72.71l.69.17c.91.22,1.19.77,1.19,1.31,0,.83-.75,1.36-1.72,1.36A1.59,1.59,0,0,1,35.93,63.11Z"/><path class="cls-2" d="M10.45,72A2.45,2.45,0,0,1,13,69.59a2.4,2.4,0,0,1,2,1.1l-1.14.72A1.13,1.13,0,0,0,13,71a1.07,1.07,0,1,0,0,2.13,1.13,1.13,0,0,0,.89-.45l1.14.72a2.4,2.4,0,0,1-2,1.1A2.46,2.46,0,0,1,10.45,72Z"/><path class="cls-2" d="M20.79,69.71v4.66H19.32v-.53a1.89,1.89,0,0,1-1.45.62,2.44,2.44,0,0,1,0-4.86,1.89,1.89,0,0,1,1.45.62v-.51ZM19.26,72a1.08,1.08,0,1,0-1.07,1A1.07,1.07,0,0,0,19.26,72Z"/><path class="cls-2" d="M27.22,72A2.3,2.3,0,0,1,25,74.45a1.89,1.89,0,0,1-1.44-.61v2.82H22v-7h1.48v.5A1.87,1.87,0,0,1,25,69.59,2.31,2.31,0,0,1,27.22,72Zm-1.5,0a1.08,1.08,0,1,0-1.08,1.06A1.07,1.07,0,0,0,25.72,72Z"/><path class="cls-2" d="M27.93,72.83h1.4a.52.52,0,0,0,.59.5c.31,0,.57-.13.57-.35s-.11-.22-.46-.3l-.61-.16C28.05,72.15,28,71.37,28,71c0-.69.78-1.39,1.91-1.39.88,0,1.95.41,1.93,1.58h-1.4c0-.3-.21-.44-.5-.44s-.46.1-.46.3.16.28.4.34l.81.22C31.87,71.91,32,72.65,32,73c0,1-1.07,1.49-2,1.49S27.93,73.89,27.93,72.83Z"/><path class="cls-2" d="M37.56,69.71v4.66H36.08v-.8a1.4,1.4,0,0,1-1.34.92c-1.24,0-1.85-.84-1.85-2.27V69.71h1.48v2.34c0,.71.43,1,.81,1a.87.87,0,0,0,.9-1V69.71Z"/><path class="cls-2" d="M38.8,67.25h1.48v7.12H38.8Z"/><path class="cls-2" d="M46.2,72.47H42.79a1,1,0,0,0,1.09.7,1.76,1.76,0,0,0,1.18-.45l.76,1a2.85,2.85,0,0,1-2,.78,2.37,2.37,0,0,1-2.52-2.41,2.42,2.42,0,0,1,2.52-2.46,2.35,2.35,0,0,1,2.46,2.35C46.23,72.07,46.22,72.24,46.2,72.47Zm-1.45-.87a.85.85,0,0,0-1-.76,1,1,0,0,0-1,.76Z"/><path class="cls-2" d="M46.79,67.25v.13h-.45v1.29H46.2V67.38h-.45v-.13Z"/><path class="cls-2" d="M48.62,68.67h-.14l-.14-1.18-.51,1h-.12l-.51-1-.15,1.18h-.13l.18-1.42h.12l.55,1.12.54-1.12h.13Z"/></svg>