<svg fill="none" height="24" viewBox="0 0 116 24" width="116" xmlns="http://www.w3.org/2000/svg"><g fill="#000"><path d="m9.307 24c-5.7712 0-8.951444-3.5687-9.307-7.4272h3.20988c.38847 3.0815 2.43292 4.8264 5.96872 4.8264 2.8214 0 5.4156-1.2971 5.4156-3.7301 0-3.0156-3.5028-3.6016-6.77856-4.3786-3.79259-.902-7.328397-2.2946-7.328397-6.67322 0-3.5358 3.242797-6.61728 7.976957-6.61728 4.9613 0 8.2304 2.98272 8.7901 7.10123h-3.0979c-.2601-2.46255-2.3342-4.50699-5.54406-4.50699-2.58106 0-5.20822 1.35638-5.20822 3.89136 0 3.34156 3.46995 3.6214 7.00578 4.4774 3.5358.8559 7.1045 2.1399 7.1045 6.4856 0 3.73-3.0815 6.5514-8.2074 6.5514z"/><path d="m36.4509 23.6742h-2.5416c-.1051-.8068-.1589-1.6194-.1613-2.433h-.0658c-1.363 1.949-3.5688 2.7589-5.7745 2.7589-4.6354 0-7.8157-3.5029-7.8157-8.7572 0-5.25434 3.1803-8.75722 7.8157-8.75722 1.1219-.01442 2.2306.2438 3.2307.75245s1.8617 1.25253 2.5108 2.16771h.0659v-2.59423h2.5942v14.00819c-.0133.9535.034 1.9069.1416 2.8544zm-2.6601-8.4313c0-3.5984-2.3045-6.29138-5.4782-6.29138-3.1736 0-5.4815 2.69298-5.4815 6.29138 0 3.5983 2.3046 6.2913 5.4815 6.2913 3.177 0 5.4782-2.6897 5.4782-6.2913z"/><path d="m64.602 12.5827v11.0914h-2.5975v-10.8971c0-2.6897-1.5243-3.89138-3.5655-3.89138-2.5284 0-4.3456 2.23868-4.3456 5.12588v9.6626h-2.5943v-10.8971c0-2.6897-1.5243-3.89138-3.5687-3.89138-2.5284 0-4.3457 2.30448-4.3457 5.18848v9.6h-2.5942v-16.86256h2.5942v2.20576h.0659c1.3168-1.78436 2.8214-2.53168 4.8-2.53168.9976-.01202 1.9788.25504 2.8328.77102.8539.51598 1.5467 1.26036 2.0001 2.14914.6373-.91078 1.4868-1.65264 2.4751-2.16143.9884-.50879 2.0857-.76921 3.1973-.75873 3.3416 0 5.6461 2.53168 5.6461 6.09708z"/><path d="m84.3493 23.6742h-2.5284c-.105-.8068-.1589-1.6194-.1613-2.433h-.0658c-1.363 1.949-3.5687 2.7589-5.7745 2.7589-4.6354 0-7.8156-3.5029-7.8156-8.7572 0-5.25434 3.1802-8.75722 7.8156-8.75722 1.1219-.01442 2.2306.2438 3.2307.75245s1.8617 1.25253 2.5109 2.16771h.0658v-2.59423h2.5942v14.00819c-.0176.9532.0253 1.9066.1284 2.8544zm-2.66-8.4313c0-3.5984-2.3046-6.29138-5.4782-6.29138-3.1737 0-5.4815 2.69298-5.4815 6.29138 0 3.5983 2.3045 6.2913 5.4815 6.2913 3.1769 0 5.4782-2.6897 5.4782-6.2913z"/><path d="m91.4834 6.81156v2.40658h.0658c.7441-1.62304 2.4955-2.59424 4.507-2.59424.3808-.0034.761.02856 1.1358.09548v2.53168c-.3307-.0653-.667-.09837-1.0041-.09876-3.3745 0-4.7045 1.9457-4.7045 4.9942v9.5474h-2.5942v-16.88234z"/><path d="m115.806 23.6742h-2.529c-.106-.8067-.161-1.6193-.164-2.433h-.063c-1.363 1.949-3.568 2.7589-5.774 2.7589-4.636 0-7.8158-3.5029-7.8158-8.7572 0-5.25434 3.1798-8.75722 7.8158-8.75722 1.122-.01442 2.23.2438 3.231.75245 1 .50865 1.861 1.25253 2.51 2.16771h.066v-2.59423h2.594v14.00819c-.019.9533.024 1.9067.129 2.8544zm-2.66-8.4313c0-3.5984-2.305-6.29138-5.482-6.29138s-5.478 2.69298-5.478 6.29138c0 3.5983 2.305 6.2913 5.478 6.2913 3.174 0 5.482-2.6897 5.482-6.2913z"/></g></svg>