<svg width="91" height="12" viewBox="0 0 91 12" fill="none" xmlns="http://www.w3.org/2000/svg">
<path d="M13.3594 0.75V3.5625H20.3906V7.78125L18.9844 9.1875H7.73438V7.78125H0.703125V10.5938H4.92188V12H20.3906L23.2031 9.1875V0.75H13.3594Z" fill="white"/>
<path d="M32.3438 8.47559V8.48438L35.8594 12H38.6719V10.5938L32.3525 4.27441L31.6494 4.97754L27.4219 0.75H24.6094V2.15625L30.2344 7.78125H30.2695L31.6582 9.16992L32.3438 8.47559Z" fill="white"/>
<path d="M54.1406 9.1875H54.1494L54.8262 9.87305L55.5117 9.1875H55.5469L62.5781 2.15625V0.75H59.792L59.7832 0.732422L54.835 5.68066L54.1318 4.97754L50.625 8.48438L42.8906 0.75H40.0781V2.15625L49.9219 12H51.3281V11.9912L54.1406 9.17871V9.1875Z" fill="white"/>
<path d="M63.9844 12H66.7969V9.1875H63.9844V12Z" fill="white"/>
<path d="M71.0156 0.75L68.2031 3.5625V7.07812H77.0625V8.48438H87.8906V9.1875H68.2031V12H90.7031V5.67188H79.5762V4.26562H71.7188L72.4219 3.5625H90.7031V0.75H71.0156Z" fill="white"/>
</svg>
