<?xml version="1.0" encoding="utf-8"?>
<!-- Generator: Adobe Illustrator 25.4.1, SVG Export Plug-In . SVG Version: 6.00 Build 0)  -->
<svg version="1.1" id="Layer_1" xmlns="http://www.w3.org/2000/svg" xmlns:xlink="http://www.w3.org/1999/xlink" x="0px" y="0px"
	 viewBox="0 0 982.3 148.1" style="enable-background:new 0 0 982.3 148.1;" xml:space="preserve">
<style type="text/css">
	.st0{fill:#FFFFFF;}
	.st1{fill:#EF3924;}
</style>
<g>
	<g>
		<path class="st0" d="M17.7,109.7c7.3,10,20.3,16.2,32.3,16.2c9.5,0,17.9-3.2,17.9-11c0-8.1-7.9-9.1-25-12.4
			C25.6,99.1,6.5,94.7,6.5,71.7C6.5,51.2,24.6,37,50.2,37c18.9,0,35.8,7.7,44.1,18.5L78,73.3c-7.1-9.1-17.5-14.2-28.6-14.2
			c-8.9,0-14.8,3.9-14.8,9.7c0,6.9,7.1,8.1,20.3,10.8c18.7,3.9,40.8,8.1,40.8,32.3c0,22.4-20.7,36.2-46.3,36.2
			c-19.3,0-39.6-7.1-49.4-20.3L17.7,109.7z"/>
		<path class="st0" d="M118.6,62.8h-14.2V39h14.2V8.5h28V39h21.7v23.8h-21.7v49.4c0,9.1,5.1,10.4,13.4,10.4c4.1,0,6.1-0.2,9.8-0.6
			v23.6c-5.1,1-11.2,1.6-18.3,1.6c-21.5,0-32.9-7.1-32.9-29.1L118.6,62.8L118.6,62.8z"/>
		<path class="st0" d="M185.1,116.2c0-21.3,17.1-30.3,38.6-34.1l26.6-5.1v-1.6c0-9.1-4.7-14.8-16.5-14.8c-10.6,0-16.1,4.7-18.5,14.2
			l-27-5.1c4.9-18.1,21.1-32.7,46.5-32.7c27,0,43.3,12.4,43.3,37.2v43.7c0,5.7,2.4,7.5,8.7,6.7v21.3c-18.1,2.6-29-1-33.7-10
			c-6.9,7.5-17.7,11.8-31.7,11.8C200.5,147.7,185.1,135.1,185.1,116.2z M250.3,96.9l-20.9,4.3c-9.4,1.8-16.2,4.9-16.2,13.4
			c0,7.3,5.5,11.6,14,11.6c12,0,23.2-6.3,23.2-18.3L250.3,96.9L250.3,96.9z"/>
		<path class="st0" d="M305.3,39h28.4v11c5.9-6.9,15.6-13,29.2-13c22.4,0,36,15.2,36,38.4v70.5h-28.4V83.5c0-12-4.9-20.5-17.1-20.5
			c-10,0-19.7,7.1-19.7,21.1v61.8h-28.4V39z"/>
		<path class="st0" d="M415.9,92.4c0-30.3,17.1-55.5,46.5-55.5c13.4,0,23.6,5.3,29.9,13V0h28.4v145.9h-28.4v-11
			c-6.3,7.9-16.5,13.2-29.9,13.2C432.9,148.1,415.9,122.9,415.9,92.4z M469.1,61.3c-16,0-24.6,12.8-24.6,31.1
			c0,18.5,8.5,31.3,24.6,31.3c13.6,0,23.8-10.2,23.8-28.2v-5.9C492.9,71.3,482.7,61.3,469.1,61.3z"/>
		<path class="st0" d="M537,116.2c0-21.3,17.1-30.3,38.6-34.1l26.6-5.1v-1.6c0-9.1-4.7-14.8-16.5-14.8c-10.6,0-16,4.7-18.5,14.2
			l-27-5.1c4.9-18.1,21.1-32.7,46.5-32.7c27,0,43.3,12.4,43.3,37.2v43.7c0,5.7,2.4,7.5,8.7,6.7v21.3c-18.1,2.6-29-1-33.7-10
			c-6.9,7.5-17.7,11.8-31.7,11.8C552.4,147.7,537,135.1,537,116.2z M602.2,96.9l-20.9,4.3c-9.3,1.8-16.2,4.9-16.2,13.4
			c0,7.3,5.5,11.6,14,11.6c12,0,23.2-6.3,23.2-18.3V96.9z"/>
		<path class="st0" d="M718.6,66.6c-3.2-0.4-5.7-0.6-9.1-0.6c-14.8,0-26.2,9.1-26.2,25.6v54.2h-28.4V39h28.4v15
			c4.7-9.4,15.2-15.6,28.4-15.6c2.8,0,4.9,0.2,6.9,0.4L718.6,66.6L718.6,66.6z"/>
		<path class="st0" d="M724,92.4c0-30.3,17.1-55.5,46.5-55.5c13.4,0,23.6,5.3,29.9,13V0h28.4v145.9h-28.4v-11
			c-6.3,7.9-16.5,13.2-29.9,13.2C741.1,148.1,724,122.9,724,92.4z M777.3,61.3c-16,0-24.6,12.8-24.6,31.1c0,18.5,8.5,31.3,24.6,31.3
			c13.6,0,23.8-10.2,23.8-28.2v-5.9C801,71.3,790.9,61.3,777.3,61.3z"/>
		<path class="st0" d="M859.6,109.7c7.3,10,20.3,16.2,32.3,16.2c9.5,0,17.9-3.2,17.9-11c0-8.1-7.9-9.1-25-12.4
			c-17.3-3.4-36.4-7.9-36.4-30.9c0-20.5,18.1-34.7,43.7-34.7c18.9,0,35.8,7.7,44.1,18.5l-16.2,17.9c-7.1-9.1-17.5-14.2-28.6-14.2
			c-8.9,0-14.8,3.9-14.8,9.8c0,6.9,7.1,8.1,20.3,10.8c18.7,3.9,40.8,8.1,40.8,32.3c0,22.4-20.7,36.2-46.3,36.2
			c-19.3,0-39.6-7.1-49.4-20.3L859.6,109.7z"/>
		<path class="st1" d="M949,112.9h33.3v32.9H949V112.9z"/>
	</g>
</g>
</svg>
